<svg xmlns="http://www.w3.org/2000/svg" viewBox="0 0 768.8 542.2">
<path d="M 129.50 449.00 L 128.75 451.50 L 126.50 453.25 L 125.50 456.25 L 123.25 459.25 L 121.25 463.00 L 121.00 467.00 L 118.75 469.00 L 119.25 474.75 L 118.75 476.25 L 117.00 478.00 L 117.25 481.75 L 116.25 484.25 L 116.75 485.50 L 118.25 487.00 L 118.50 487.75 L 118.25 495.00 L 118.75 496.50 L 119.00 500.25 L 118.75 501.25 L 117.25 502.50 L 117.50 503.50 L 119.25 504.00 L 120.50 505.25 L 123.50 510.00 L 126.25 512.75 L 128.25 513.00 L 129.00 513.50 L 129.25 517.00 L 130.25 518.25 L 134.25 520.75 L 137.75 524.25 L 142.00 525.00 L 145.75 527.25 L 146.50 527.25 L 149.75 528.75 L 151.25 530.00 L 156.25 529.75 L 157.75 530.75 L 159.75 531.25 L 162.75 531.00 L 166.75 531.25 L 167.75 531.75 L 173.00 532.00 L 177.00 531.75 L 181.00 530.50 L 182.75 530.50 L 189.00 527.00 L 191.75 526.00 L 194.00 525.75 L 196.50 523.25 L 198.00 522.50 L 199.75 522.50 L 200.50 521.00 L 204.50 516.75 L 205.75 516.50 L 206.75 517.75 L 206.25 520.00 L 207.25 522.00 L 207.00 529.25 L 207.50 530.00 L 209.00 530.75 L 210.25 530.75 L 212.25 531.50 L 214.50 531.50 L 217.50 529.75 L 219.00 528.25 L 219.50 526.75 L 219.00 521.75 L 219.25 517.25 L 218.75 514.75 L 219.50 513.00 L 219.50 507.75 L 218.25 503.50 L 218.75 501.50 L 218.50 498.00 L 219.00 496.00 L 218.25 494.50 L 217.75 483.50 L 218.75 478.50 L 218.50 474.00 L 218.00 472.00 L 218.25 469.75 L 217.75 468.25 L 218.25 466.25 L 218.25 457.00 L 217.75 455.50 L 218.00 451.50 L 217.25 450.25 L 217.25 449.25 L 218.50 446.50 L 218.50 443.50 L 217.50 437.50 L 216.50 435.75 L 213.00 434.50 L 208.25 434.50 L 207.00 435.25 L 206.75 436.75 L 207.25 437.75 L 207.25 440.50 L 206.00 444.25 L 206.50 448.50 L 206.00 449.50 L 205.00 449.50 L 201.75 446.50 L 199.25 445.00 L 197.75 443.25 L 194.75 442.25 L 191.25 440.00 L 187.25 439.25 L 184.50 437.25 L 181.50 437.25 L 179.25 435.50 L 175.50 435.50 L 173.00 434.50 L 171.00 434.50 L 169.75 435.00 L 164.75 435.00 L 163.25 436.00 L 162.50 436.00 L 161.75 435.25 L 160.50 435.00 L 157.75 436.25 L 155.75 436.25 L 154.25 437.00 L 150.50 437.25 L 148.75 439.00 L 145.25 438.50 L 142.25 440.25 L 139.25 444.00 L 136.00 445.75 L 133.75 448.75 L 132.50 449.00 L 130.50 448.25 Z M 172.00 445.50 L 172.25 445.75 L 174.25 445.75 L 175.00 446.25 L 178.50 446.25 L 178.75 446.50 L 180.25 446.75 L 182.00 448.00 L 184.25 449.00 L 186.25 450.50 L 189.00 451.75 L 191.75 453.75 L 194.00 454.75 L 194.75 455.50 L 195.50 457.25 L 196.00 457.50 L 197.75 457.50 L 198.25 457.75 L 199.00 458.75 L 199.25 460.00 L 200.50 462.00 L 201.25 463.75 L 201.25 466.00 L 201.50 466.50 L 204.00 468.00 L 204.75 469.00 L 204.75 470.00 L 204.00 470.75 L 203.75 472.50 L 205.75 474.75 L 206.25 475.75 L 206.25 478.75 L 206.00 479.00 L 205.75 481.50 L 206.00 481.75 L 206.00 483.50 L 206.25 483.75 L 206.25 486.50 L 206.50 486.75 L 206.50 487.75 L 206.25 488.50 L 204.00 490.50 L 203.00 492.75 L 203.00 494.25 L 203.50 495.25 L 204.75 496.00 L 205.00 496.75 L 203.75 499.75 L 201.75 501.75 L 200.75 504.00 L 199.00 506.00 L 198.00 506.50 L 197.75 507.00 L 195.25 509.25 L 195.00 510.00 L 191.00 514.00 L 190.50 514.25 L 188.50 514.50 L 188.25 514.75 L 187.00 514.75 L 183.25 517.25 L 181.75 517.25 L 181.50 517.50 L 179.75 517.75 L 178.75 518.50 L 177.25 518.75 L 176.25 519.25 L 172.50 519.25 L 172.25 519.00 L 171.00 519.00 L 170.75 518.75 L 169.50 519.25 L 168.75 520.00 L 167.00 520.25 L 166.75 520.00 L 162.25 520.00 L 159.50 519.00 L 156.50 519.00 L 156.25 518.75 L 155.25 518.75 L 154.50 518.25 L 152.50 517.75 L 151.25 517.00 L 149.25 516.75 L 147.00 514.00 L 144.75 513.50 L 142.75 511.25 L 141.75 511.00 L 139.25 509.75 L 138.25 508.75 L 137.75 507.50 L 136.75 506.25 L 134.75 504.25 L 134.25 503.00 L 134.25 501.50 L 134.00 501.00 L 133.00 500.25 L 131.25 500.00 L 130.00 499.00 L 129.75 498.50 L 129.75 496.50 L 129.50 496.25 L 129.25 493.75 L 128.75 492.75 L 128.75 492.00 L 127.75 490.00 L 128.00 488.25 L 128.50 487.75 L 129.00 486.50 L 129.00 485.50 L 128.00 482.50 L 127.75 478.00 L 129.00 474.75 L 129.25 472.75 L 130.00 471.00 L 129.75 468.25 L 131.50 466.25 L 132.00 464.00 L 133.50 462.50 L 135.25 461.75 L 135.75 461.25 L 136.25 460.25 L 136.25 458.75 L 136.50 458.25 L 137.50 457.25 L 138.25 457.00 L 139.25 455.75 L 142.50 452.75 L 146.75 451.50 L 149.00 450.25 L 150.75 450.00 L 151.25 449.50 L 156.00 447.25 L 158.50 447.00 L 160.00 446.25 L 165.50 446.25 L 165.75 446.00 L 167.00 446.00 L 168.50 445.50 Z M 275.75 434.50 L 274.50 434.00 L 267.50 433.25 L 263.00 435.75 L 261.00 435.75 L 258.50 436.75 L 255.00 439.50 L 251.25 439.00 L 247.25 434.50 L 246.00 434.00 L 241.00 434.25 L 238.75 435.75 L 238.25 436.75 L 238.50 441.50 L 239.00 442.25 L 239.00 445.75 L 238.25 447.25 L 238.75 448.50 L 238.25 453.75 L 237.75 454.50 L 238.25 457.75 L 237.50 459.25 L 237.75 460.75 L 237.25 461.75 L 237.25 464.00 L 239.00 468.75 L 238.75 472.50 L 239.25 479.75 L 238.75 481.50 L 240.00 484.00 L 240.00 486.00 L 238.25 489.50 L 238.75 495.75 L 238.50 508.25 L 237.25 509.75 L 236.25 509.00 L 234.75 500.25 L 235.75 488.75 L 234.50 486.00 L 234.75 482.50 L 233.75 480.25 L 234.00 475.25 L 234.75 473.25 L 234.25 467.50 L 235.25 461.75 L 235.25 459.50 L 234.25 456.75 L 234.75 446.25 L 234.00 444.50 L 234.00 438.75 L 233.25 436.25 L 230.00 434.00 L 225.75 434.25 L 222.50 436.75 L 221.75 438.25 L 221.50 441.75 L 223.00 444.75 L 222.75 449.50 L 221.00 452.75 L 221.50 453.50 L 221.25 459.25 L 222.25 461.25 L 223.25 465.25 L 222.75 470.00 L 222.00 472.00 L 223.00 487.50 L 222.00 489.50 L 222.25 492.75 L 220.50 496.50 L 222.50 499.50 L 222.00 501.25 L 222.25 504.25 L 221.50 506.50 L 221.75 509.25 L 221.25 510.25 L 221.50 512.25 L 222.75 514.00 L 222.00 520.00 L 222.00 524.25 L 223.75 528.00 L 224.00 529.50 L 225.00 530.75 L 229.25 531.50 L 232.75 529.75 L 234.25 528.50 L 236.00 524.25 L 236.00 515.75 L 236.25 514.25 L 237.00 513.25 L 237.50 514.00 L 237.25 515.75 L 238.75 517.00 L 239.25 521.50 L 239.00 525.25 L 240.00 528.75 L 241.75 530.25 L 243.50 530.75 L 247.75 530.50 L 251.75 528.25 L 252.25 513.25 L 251.75 512.00 L 252.00 508.25 L 251.50 507.50 L 252.25 501.75 L 252.25 496.25 L 251.25 493.25 L 251.00 486.75 L 251.50 482.50 L 251.25 478.50 L 250.50 476.50 L 250.50 471.25 L 251.25 469.25 L 251.75 462.00 L 253.75 458.50 L 255.50 453.25 L 258.00 451.25 L 260.75 448.00 L 265.75 445.50 L 268.75 445.25 L 270.50 444.50 L 272.25 444.50 L 273.50 445.25 L 275.25 444.75 L 276.75 441.50 L 276.50 438.00 L 277.00 437.00 L 277.00 436.00 Z M 337.50 438.75 L 332.25 447.00 L 329.50 448.25 L 328.50 453.00 L 327.00 455.25 L 327.00 460.75 L 328.50 462.75 L 327.75 466.00 L 329.50 468.50 L 331.50 474.25 L 334.75 478.75 L 339.00 482.50 L 351.00 488.00 L 357.25 487.75 L 362.00 488.50 L 369.25 488.50 L 370.50 487.75 L 374.25 487.50 L 377.00 488.25 L 393.00 487.50 L 394.75 488.25 L 401.50 488.50 L 404.25 491.25 L 407.50 492.75 L 409.00 494.75 L 410.00 497.25 L 409.50 504.50 L 410.75 505.75 L 410.25 509.25 L 403.00 516.25 L 394.75 518.25 L 373.25 517.75 L 354.25 518.50 L 335.50 518.25 L 329.75 519.00 L 328.75 520.25 L 328.00 523.50 L 328.25 527.25 L 330.25 529.25 L 334.50 530.75 L 342.00 530.00 L 350.50 530.50 L 357.25 529.75 L 364.25 529.75 L 367.25 530.50 L 376.75 529.75 L 386.00 530.50 L 389.00 529.75 L 398.00 529.50 L 400.50 528.50 L 403.25 528.75 L 414.25 523.50 L 419.75 517.75 L 421.50 513.50 L 423.00 511.50 L 422.75 501.75 L 423.50 498.00 L 422.00 496.00 L 421.25 492.75 L 419.25 490.50 L 418.25 488.00 L 412.50 481.50 L 403.00 477.00 L 401.00 477.25 L 397.25 476.00 L 388.00 476.00 L 387.00 476.50 L 373.75 476.00 L 368.25 477.00 L 365.25 476.25 L 353.50 476.00 L 349.50 473.00 L 347.25 472.50 L 344.00 470.25 L 340.25 462.25 L 340.25 458.00 L 343.00 453.50 L 343.00 451.00 L 349.75 445.25 L 352.50 444.50 L 360.00 445.25 L 362.75 444.25 L 366.00 444.00 L 378.00 444.75 L 380.25 444.00 L 388.00 443.75 L 390.25 445.00 L 395.75 445.00 L 398.75 444.00 L 405.50 444.25 L 408.25 445.00 L 414.00 444.75 L 416.50 443.50 L 419.25 443.50 L 421.25 441.50 L 421.00 433.75 L 418.75 433.75 L 416.75 432.75 L 412.00 433.00 L 411.00 432.50 L 402.75 432.50 L 401.00 433.00 L 395.00 432.50 L 383.75 432.50 L 382.75 433.00 L 367.50 432.50 L 362.00 433.00 L 355.00 432.25 L 350.25 434.00 L 347.50 434.00 Z M 585.75 432.25 L 581.50 434.25 L 578.25 434.75 L 576.00 435.75 L 574.50 436.75 L 572.50 437.50 L 569.00 440.25 L 565.75 442.00 L 557.50 450.50 L 557.25 451.25 L 556.00 452.50 L 555.00 453.00 L 554.75 454.75 L 553.00 457.00 L 552.75 459.25 L 552.00 460.75 L 552.00 462.50 L 549.75 468.25 L 549.25 472.50 L 548.50 474.00 L 548.50 477.00 L 548.00 477.75 L 548.00 479.75 L 547.75 480.00 L 549.25 482.75 L 549.75 484.50 L 549.75 488.50 L 550.00 488.75 L 549.50 490.00 L 549.50 491.50 L 551.00 493.50 L 552.00 496.25 L 555.00 501.50 L 556.25 505.50 L 558.75 507.75 L 559.00 510.00 L 562.00 512.25 L 566.75 517.50 L 571.00 519.75 L 572.75 520.25 L 575.50 522.25 L 579.75 524.50 L 583.25 526.00 L 585.75 526.25 L 588.25 527.75 L 594.25 528.00 L 596.75 528.50 L 598.00 528.50 L 599.75 528.00 L 601.00 528.25 L 604.00 528.25 L 604.25 528.00 L 609.75 528.25 L 613.50 526.75 L 615.25 526.75 L 616.50 526.25 L 619.75 525.75 L 622.50 524.25 L 624.50 524.25 L 628.50 522.00 L 632.50 520.75 L 633.50 519.75 L 634.25 517.75 L 635.00 517.00 L 637.25 516.00 L 642.25 510.50 L 644.00 509.50 L 644.75 506.50 L 648.50 499.50 L 648.50 497.25 L 649.25 495.75 L 649.25 494.75 L 650.75 491.50 L 650.50 483.75 L 651.00 481.25 L 652.00 479.50 L 652.00 478.00 L 651.00 474.75 L 651.00 472.75 L 650.25 471.25 L 650.50 466.50 L 650.25 465.75 L 648.75 464.00 L 645.75 456.75 L 641.25 452.25 L 640.75 451.25 L 640.75 450.50 L 639.00 447.75 L 637.00 445.75 L 635.00 444.50 L 633.50 443.00 L 632.75 441.25 L 631.75 440.25 L 628.75 440.00 L 627.50 439.00 L 621.75 436.25 L 619.25 435.50 L 618.25 435.50 L 614.75 433.75 L 612.00 433.50 L 609.75 432.75 L 607.50 432.75 L 605.25 431.50 L 602.00 431.50 L 601.75 431.75 L 595.75 431.50 L 595.50 431.75 L 592.75 431.75 L 592.50 432.00 L 590.00 432.00 L 589.75 432.25 Z M 591.25 443.50 L 592.50 443.50 L 592.75 443.25 L 595.75 443.25 L 596.00 443.00 L 598.25 443.00 L 598.50 443.25 L 601.00 443.00 L 601.25 443.25 L 602.25 443.25 L 602.50 443.50 L 608.75 443.75 L 611.50 445.25 L 612.50 445.50 L 613.50 446.25 L 614.00 446.25 L 615.75 447.00 L 616.50 447.75 L 618.25 448.50 L 619.50 449.50 L 626.75 453.25 L 628.50 455.25 L 630.50 456.75 L 632.25 460.75 L 632.75 461.25 L 633.50 463.00 L 634.50 464.25 L 635.00 466.00 L 635.75 467.00 L 637.25 470.00 L 637.25 471.25 L 637.00 471.50 L 637.00 472.50 L 636.75 472.75 L 637.25 475.25 L 636.75 476.25 L 636.75 477.50 L 637.25 478.50 L 638.50 480.00 L 638.25 484.50 L 637.75 485.25 L 637.75 486.00 L 637.50 486.25 L 637.50 488.25 L 637.00 489.50 L 637.00 492.25 L 634.50 497.25 L 633.75 498.00 L 632.50 500.50 L 631.25 501.75 L 630.25 504.00 L 628.00 506.50 L 627.25 506.75 L 625.00 508.50 L 623.25 509.25 L 621.50 510.50 L 618.50 512.00 L 617.75 512.00 L 615.50 513.25 L 615.00 513.25 L 613.25 514.50 L 610.75 515.50 L 610.00 515.50 L 609.75 515.75 L 606.25 515.50 L 605.00 516.00 L 602.75 516.00 L 600.75 516.75 L 595.00 516.75 L 594.75 516.50 L 592.25 516.00 L 589.00 514.25 L 586.75 514.50 L 584.50 513.50 L 581.75 511.50 L 580.75 511.00 L 580.25 511.00 L 578.75 510.00 L 577.50 509.50 L 575.50 507.50 L 574.00 506.50 L 571.75 504.25 L 571.75 504.00 L 571.00 503.50 L 570.00 501.50 L 567.00 498.75 L 566.25 497.00 L 566.00 495.50 L 563.50 491.75 L 563.25 490.75 L 561.75 488.00 L 561.75 487.25 L 561.50 487.00 L 561.50 483.00 L 561.75 482.75 L 561.75 475.25 L 562.75 473.00 L 562.50 470.25 L 562.75 470.00 L 563.50 467.25 L 564.00 466.50 L 564.25 465.00 L 565.50 462.25 L 566.75 460.75 L 567.25 459.50 L 569.75 457.00 L 570.25 456.00 L 570.25 455.00 L 570.50 454.50 L 572.00 453.50 L 573.75 453.25 L 574.75 452.75 L 576.25 451.25 L 576.75 450.25 L 576.75 449.75 L 578.25 448.25 L 579.25 447.75 L 579.75 447.75 L 581.00 447.00 L 581.50 447.00 L 583.25 446.25 L 584.00 446.25 L 586.25 445.25 L 589.25 444.75 L 589.75 444.25 Z M 655.25 432.50 L 653.25 435.75 L 652.50 446.50 L 654.25 449.25 L 653.75 461.00 L 654.00 464.75 L 655.00 466.75 L 655.00 473.25 L 653.75 478.25 L 654.50 482.50 L 655.25 484.00 L 655.00 487.25 L 655.50 491.75 L 654.75 493.50 L 654.75 495.50 L 655.25 496.25 L 655.00 499.50 L 655.75 501.00 L 656.00 510.75 L 655.50 513.00 L 656.25 514.25 L 657.00 522.50 L 656.75 525.25 L 657.50 526.50 L 660.25 527.75 L 664.50 528.25 L 665.75 527.75 L 669.50 523.50 L 669.50 511.00 L 668.75 509.25 L 669.00 502.00 L 667.75 494.50 L 667.75 486.00 L 668.25 483.50 L 667.50 481.25 L 668.00 468.25 L 670.25 463.25 L 673.75 457.50 L 676.00 455.25 L 677.25 452.50 L 680.00 450.50 L 685.25 448.25 L 687.00 447.00 L 691.00 445.75 L 692.75 444.00 L 694.75 443.00 L 697.50 442.50 L 712.00 442.75 L 715.25 444.50 L 720.50 445.00 L 725.50 448.50 L 731.50 451.25 L 733.50 454.50 L 737.50 458.00 L 739.50 461.25 L 741.25 465.50 L 743.00 467.75 L 743.25 477.00 L 743.75 478.50 L 743.50 483.75 L 744.50 485.50 L 743.50 497.50 L 744.00 500.50 L 745.25 502.25 L 745.50 510.75 L 744.50 513.50 L 744.50 515.50 L 745.75 519.25 L 745.75 521.50 L 747.75 525.75 L 749.75 527.50 L 752.00 527.75 L 756.00 527.25 L 758.00 526.00 L 760.75 521.50 L 760.75 517.50 L 759.00 512.25 L 759.75 506.50 L 759.75 497.25 L 759.00 495.75 L 759.50 490.75 L 758.75 489.25 L 758.75 485.50 L 757.50 481.25 L 757.00 472.25 L 756.25 468.75 L 756.50 464.00 L 755.25 461.25 L 753.50 459.50 L 752.50 457.00 L 750.50 454.50 L 747.50 448.50 L 740.50 441.75 L 731.25 436.25 L 727.50 435.50 L 724.25 434.00 L 723.25 433.00 L 721.00 432.75 L 718.00 431.25 L 712.75 431.00 L 711.00 431.50 L 706.75 430.50 L 700.25 430.50 L 698.25 431.25 L 695.25 431.00 L 690.00 433.00 L 685.50 433.25 L 682.75 435.00 L 673.00 439.50 L 669.50 442.50 L 666.75 443.75 L 666.25 443.00 L 666.25 434.25 L 665.00 432.25 L 657.75 430.50 Z M 12.25 404.75 L 11.75 405.50 L 12.00 408.75 L 10.50 411.25 L 10.75 417.25 L 11.50 420.00 L 10.25 422.25 L 11.25 427.00 L 10.00 430.75 L 12.25 436.75 L 11.50 440.25 L 11.50 455.00 L 10.25 457.00 L 10.75 467.00 L 11.75 471.25 L 10.50 473.50 L 10.50 477.25 L 11.25 479.50 L 9.00 482.50 L 10.00 490.00 L 8.00 494.00 L 8.00 495.50 L 9.75 497.75 L 10.25 501.50 L 9.25 507.50 L 9.75 508.75 L 9.50 511.25 L 10.25 513.00 L 10.00 516.50 L 12.50 520.25 L 12.25 521.50 L 10.50 523.25 L 11.00 531.00 L 14.00 531.50 L 16.50 532.75 L 20.25 530.75 L 22.75 527.50 L 19.75 516.75 L 19.50 512.50 L 20.00 510.75 L 21.75 510.75 L 22.50 509.75 L 21.50 506.00 L 22.00 503.75 L 20.00 499.50 L 20.50 497.50 L 21.75 496.25 L 21.50 494.25 L 22.00 493.25 L 21.00 490.75 L 21.00 484.50 L 20.25 481.75 L 22.00 478.50 L 22.25 471.00 L 24.50 469.00 L 27.25 461.50 L 30.50 458.75 L 30.75 457.00 L 32.00 455.50 L 37.50 452.75 L 39.75 450.00 L 43.25 448.25 L 44.25 448.25 L 46.00 449.50 L 51.75 446.50 L 56.50 445.75 L 63.25 446.75 L 65.00 445.25 L 67.00 445.00 L 71.25 447.75 L 78.50 448.00 L 80.00 449.25 L 80.00 451.25 L 83.00 452.00 L 86.50 454.50 L 90.50 455.25 L 91.50 456.50 L 91.75 459.25 L 94.00 460.50 L 95.25 462.00 L 95.00 463.25 L 98.25 465.75 L 98.75 470.50 L 96.50 473.00 L 100.50 475.75 L 103.00 480.25 L 102.25 486.75 L 102.50 490.00 L 101.00 492.25 L 102.50 494.75 L 102.50 496.00 L 101.00 498.75 L 102.00 501.50 L 100.50 504.50 L 100.50 507.00 L 101.50 510.25 L 100.00 512.50 L 100.75 515.50 L 99.00 517.75 L 99.25 520.00 L 100.75 522.25 L 100.75 523.50 L 99.25 524.75 L 99.25 525.50 L 101.50 527.25 L 101.25 530.00 L 104.50 534.00 L 107.00 534.00 L 111.00 531.50 L 112.50 529.25 L 111.75 522.00 L 112.75 519.50 L 111.75 517.75 L 111.75 516.00 L 113.50 514.00 L 112.00 511.00 L 112.50 503.75 L 114.25 502.50 L 114.25 502.00 L 112.25 501.25 L 110.50 496.00 L 111.50 489.75 L 111.25 480.75 L 110.25 478.50 L 111.00 475.75 L 111.00 472.25 L 110.25 471.00 L 110.00 468.00 L 106.25 462.75 L 105.25 458.25 L 102.00 453.00 L 97.75 450.50 L 91.50 444.00 L 89.50 443.75 L 84.00 441.00 L 81.50 440.75 L 79.75 439.25 L 76.50 438.75 L 73.00 437.25 L 62.00 437.50 L 59.50 436.25 L 55.00 438.25 L 55.00 440.50 L 53.25 438.25 L 50.25 437.75 L 45.00 440.25 L 42.00 439.75 L 38.75 441.00 L 36.00 443.75 L 29.75 446.25 L 29.00 447.75 L 27.00 449.00 L 24.50 452.25 L 20.25 452.50 L 19.75 450.50 L 20.75 448.75 L 20.00 445.75 L 20.50 442.00 L 19.50 437.25 L 19.00 428.50 L 20.50 426.50 L 20.50 424.00 L 19.50 421.25 L 18.75 410.75 L 20.25 409.00 L 20.50 407.50 L 19.75 405.50 L 18.50 404.25 Z M 223.00 401.00 L 222.00 402.00 L 222.00 402.25 L 221.75 402.50 L 221.75 405.00 L 221.50 405.25 L 221.50 406.25 L 221.25 406.50 L 221.25 406.75 L 221.50 407.00 L 221.50 408.00 L 221.75 408.25 L 221.75 409.50 L 222.00 409.75 L 222.00 411.00 L 222.25 411.25 L 222.25 411.75 L 222.50 412.00 L 222.50 414.50 L 222.25 414.75 L 222.25 416.25 L 222.50 416.50 L 222.50 416.75 L 222.75 417.00 L 222.75 417.25 L 223.00 417.50 L 223.00 417.75 L 225.00 419.75 L 225.50 419.75 L 225.75 420.00 L 227.25 420.00 L 227.50 419.75 L 230.75 419.75 L 231.00 419.50 L 231.25 419.50 L 231.50 419.25 L 231.75 419.25 L 232.00 419.00 L 232.25 419.00 L 233.00 418.25 L 233.00 418.00 L 233.25 417.75 L 233.25 417.00 L 233.50 416.75 L 233.50 416.50 L 233.25 416.25 L 233.25 413.50 L 233.50 413.25 L 233.50 412.50 L 233.75 412.25 L 233.75 410.50 L 233.50 410.25 L 233.50 406.75 L 233.75 406.50 L 233.75 403.75 L 233.50 403.50 L 233.50 403.25 L 233.25 403.00 L 233.25 402.75 L 233.00 402.50 L 233.00 402.25 L 232.00 401.25 L 231.75 401.25 L 231.50 401.00 L 229.50 401.00 L 229.25 401.25 L 226.75 401.25 L 226.50 401.00 L 226.00 401.00 L 225.75 400.75 L 223.75 400.75 L 223.50 401.00 Z M 541.00 399.25 L 539.25 398.50 L 533.25 398.50 L 530.25 400.75 L 529.75 408.25 L 531.00 409.75 L 530.50 412.50 L 531.25 414.75 L 530.25 416.75 L 530.50 420.25 L 529.75 425.75 L 531.25 427.00 L 531.00 441.75 L 529.50 443.00 L 529.50 444.00 L 531.75 445.25 L 531.25 447.25 L 531.50 452.75 L 530.75 455.75 L 531.00 459.00 L 530.50 459.50 L 529.00 459.00 L 529.25 454.00 L 527.75 451.00 L 527.25 448.25 L 527.25 437.25 L 527.75 435.50 L 527.00 434.00 L 525.00 432.50 L 519.00 432.25 L 514.25 434.25 L 514.00 435.75 L 515.00 437.50 L 515.50 442.25 L 515.25 444.75 L 514.25 445.75 L 509.00 441.50 L 495.00 435.00 L 490.50 434.50 L 488.00 432.50 L 484.00 433.00 L 474.25 432.25 L 469.00 432.50 L 466.50 433.50 L 463.00 433.25 L 457.50 436.25 L 455.25 436.50 L 446.50 440.75 L 440.75 445.75 L 437.25 449.75 L 435.25 450.75 L 432.75 456.50 L 430.00 460.75 L 429.50 462.50 L 430.00 464.75 L 426.50 470.75 L 427.25 474.00 L 426.25 482.75 L 426.75 487.75 L 428.00 490.00 L 428.50 496.25 L 430.50 498.75 L 431.00 501.25 L 435.25 508.25 L 438.75 512.75 L 441.00 513.75 L 446.00 518.75 L 449.50 521.25 L 463.50 527.75 L 466.75 527.50 L 470.00 528.50 L 482.00 528.50 L 483.50 529.00 L 493.75 528.00 L 503.00 524.00 L 515.00 516.75 L 516.50 518.25 L 516.25 521.00 L 517.75 525.50 L 519.25 527.25 L 522.25 528.75 L 527.75 528.25 L 530.25 525.25 L 529.75 515.75 L 530.25 506.75 L 530.00 500.00 L 529.25 497.50 L 529.50 491.75 L 528.50 481.25 L 528.75 470.75 L 528.00 463.75 L 528.25 462.50 L 530.00 461.75 L 532.25 463.00 L 531.75 475.25 L 530.00 478.75 L 530.50 479.75 L 532.00 479.75 L 533.00 481.25 L 532.50 488.75 L 530.75 490.50 L 532.50 492.75 L 531.50 494.00 L 531.25 496.50 L 533.00 498.75 L 533.25 507.25 L 532.75 509.75 L 534.25 511.25 L 533.50 514.25 L 533.75 525.50 L 534.50 526.50 L 538.75 528.50 L 543.25 528.50 L 544.50 527.75 L 546.25 525.50 L 547.00 516.50 L 546.25 508.50 L 545.50 507.00 L 546.25 505.00 L 546.75 498.00 L 545.75 496.25 L 545.25 488.75 L 546.25 485.75 L 546.25 481.00 L 545.00 478.50 L 545.75 466.50 L 544.00 461.25 L 544.00 458.75 L 545.25 454.25 L 544.50 446.50 L 543.25 443.75 L 544.75 435.75 L 542.75 430.75 L 543.00 425.50 L 544.00 422.75 L 543.00 416.75 L 543.75 403.00 L 543.25 401.50 Z M 470.25 444.25 L 479.50 444.00 L 479.75 444.25 L 483.00 444.25 L 484.75 445.25 L 488.50 445.25 L 489.50 445.75 L 491.25 446.00 L 492.50 447.00 L 494.25 447.75 L 494.75 448.25 L 496.25 449.00 L 496.75 449.00 L 499.00 450.25 L 500.25 450.50 L 501.50 451.25 L 502.50 451.50 L 503.50 452.50 L 504.25 454.50 L 507.00 457.00 L 508.00 459.25 L 508.75 460.00 L 509.75 460.25 L 510.50 460.75 L 511.00 463.00 L 511.75 464.00 L 515.25 471.00 L 515.25 471.50 L 515.75 472.50 L 515.75 473.25 L 516.00 473.50 L 516.00 476.50 L 515.75 476.75 L 515.75 477.25 L 516.00 477.50 L 516.00 481.25 L 515.75 481.50 L 515.75 482.75 L 515.50 483.00 L 515.50 484.00 L 515.00 485.25 L 514.75 488.75 L 514.25 490.00 L 513.25 491.25 L 513.00 493.00 L 512.75 493.25 L 512.75 495.00 L 512.50 495.25 L 512.25 496.50 L 511.50 497.75 L 511.25 499.00 L 509.25 503.00 L 503.75 508.25 L 501.50 509.50 L 500.25 510.75 L 499.25 511.25 L 497.75 512.50 L 495.75 513.50 L 495.25 513.50 L 493.50 514.25 L 492.00 514.25 L 491.75 514.50 L 490.00 514.75 L 488.75 515.75 L 487.00 516.50 L 485.75 516.50 L 485.50 516.75 L 481.75 516.75 L 479.75 517.50 L 475.75 517.50 L 475.50 517.25 L 473.75 517.25 L 472.75 516.75 L 470.25 516.50 L 469.00 515.75 L 468.25 515.75 L 467.50 515.25 L 467.00 515.25 L 466.00 514.75 L 465.25 514.75 L 465.00 514.50 L 462.50 514.00 L 460.50 512.75 L 458.50 512.25 L 456.50 511.25 L 454.00 508.75 L 451.75 507.50 L 444.75 500.25 L 444.25 499.25 L 444.25 498.75 L 443.00 496.75 L 443.00 496.00 L 441.25 492.75 L 441.25 492.25 L 441.00 492.00 L 441.00 489.25 L 440.75 489.00 L 440.75 488.50 L 440.00 487.75 L 439.25 486.25 L 439.25 485.50 L 439.50 485.25 L 439.25 481.50 L 439.50 481.25 L 439.50 479.75 L 439.75 479.50 L 439.50 473.75 L 439.75 473.50 L 439.75 472.75 L 441.00 470.75 L 441.00 470.00 L 441.25 469.75 L 441.25 467.50 L 444.00 461.75 L 444.00 460.00 L 444.25 459.50 L 446.75 457.25 L 448.25 456.50 L 449.00 455.75 L 449.50 454.75 L 452.25 451.75 L 453.25 451.25 L 453.75 451.25 L 455.75 450.00 L 456.75 449.75 L 458.25 448.50 L 460.25 448.25 L 461.25 447.75 L 462.50 446.50 L 465.00 446.00 L 465.25 445.75 L 466.00 445.75 L 466.25 445.50 L 468.50 445.50 Z M 192.25 22.25 L 176.25 38.75 L 172.25 57.75 L 168.25 59.75 L 170.50 62.25 L 167.75 71.00 L 169.75 97.50 L 167.75 102.25 L 171.75 177.75 L 168.25 189.75 L 173.50 194.75 L 188.25 193.50 L 185.50 73.25 L 189.25 56.75 L 200.50 40.00 L 212.25 31.25 L 227.25 26.75 L 245.50 27.50 L 256.00 32.50 L 257.50 188.75 L 262.75 194.25 L 272.25 194.75 L 276.00 191.50 L 273.25 33.50 L 280.50 27.75 L 299.00 26.25 L 318.00 32.75 L 333.00 46.50 L 342.00 68.00 L 346.00 322.00 L 350.50 340.00 L 359.50 355.50 L 376.50 369.00 L 404.00 379.75 L 417.25 380.00 L 442.75 373.00 L 470.25 379.25 L 491.50 377.50 L 518.75 362.25 L 530.50 348.50 L 539.25 319.75 L 539.00 254.25 L 535.25 189.75 L 523.00 188.00 L 518.00 191.25 L 522.25 317.25 L 518.75 331.75 L 498.75 354.25 L 477.25 361.00 L 457.50 357.50 L 452.00 351.50 L 448.50 193.50 L 443.00 188.50 L 430.25 190.50 L 433.25 355.00 L 419.00 361.50 L 396.00 358.00 L 384.50 351.25 L 373.25 340.00 L 363.75 314.50 L 364.75 271.50 L 362.75 266.00 L 363.50 210.00 L 361.25 185.25 L 365.00 181.50 L 360.50 172.25 L 360.00 64.25 L 350.50 38.75 L 341.00 26.50 L 319.75 12.25 L 299.25 8.25 L 279.50 9.25 L 264.00 15.00 L 245.00 9.00 L 219.25 9.25 L 209.25 11.75 Z" fill="#556E22" fill-rule="evenodd"/>
</svg>